<?xml version="1.0" encoding="UTF-8" standalone="no"?><!DOCTYPE svg PUBLIC "-//W3C//DTD SVG 1.1//EN" "http://www.w3.org/Graphics/SVG/1.1/DTD/svg11.dtd"><svg width="100%" height="100%" viewBox="0 0 130 127" version="1.1" xmlns="http://www.w3.org/2000/svg" xmlns:xlink="http://www.w3.org/1999/xlink" xml:space="preserve" xmlns:serif="http://www.serif.com/" style="fill-rule:evenodd;clip-rule:evenodd;stroke-linejoin:round;stroke-miterlimit:2;"><g><path d="M129.062,71.438c-0,-1.398 -0.556,-2.738 -1.544,-3.726c-0.988,-0.989 -2.329,-1.544 -3.726,-1.544l-16.525,0c-1.398,0 -2.738,0.555 -3.726,1.544c-0.989,0.988 -1.544,2.328 -1.544,3.726l0,16.525c0,1.397 0.555,2.738 1.544,3.726c0.988,0.988 2.328,1.544 3.726,1.544l16.525,-0c1.397,-0 2.738,-0.556 3.726,-1.544c0.988,-0.988 1.544,-2.329 1.544,-3.726l-0,-16.525Z" style="fill:#c0f;"/><path d="M95.063,71.438c-0,-1.398 -0.556,-2.738 -1.544,-3.726c-0.988,-0.989 -2.329,-1.544 -3.726,-1.544l-16.525,0c-1.398,0 -2.738,0.555 -3.726,1.544c-0.989,0.988 -1.544,2.328 -1.544,3.726l0,16.525c0,1.397 0.555,2.738 1.544,3.726c0.988,0.988 2.328,1.544 3.726,1.544l16.525,-0c1.397,-0 2.738,-0.556 3.726,-1.544c0.988,-0.988 1.544,-2.329 1.544,-3.726l-0,-16.525Z" style="fill:#c0f;"/><path d="M61.064,71.438c-0,-1.398 -0.556,-2.738 -1.544,-3.726c-0.988,-0.989 -2.329,-1.544 -3.726,-1.544l-16.525,0c-1.398,0 -2.738,0.555 -3.726,1.544c-0.989,0.988 -1.544,2.328 -1.544,3.726l0,16.525c0,1.397 0.555,2.738 1.544,3.726c0.988,0.988 2.328,1.544 3.726,1.544l16.525,-0c1.397,-0 2.738,-0.556 3.726,-1.544c0.988,-0.988 1.544,-2.329 1.544,-3.726l-0,-16.525Z" style="fill:#c0f;"/><path d="M129.062,38.354c-0,-1.398 -0.556,-2.738 -1.544,-3.726c-0.988,-0.989 -2.329,-1.544 -3.726,-1.544l-16.525,0c-1.398,0 -2.738,0.555 -3.726,1.544c-0.989,0.988 -1.544,2.328 -1.544,3.726l0,16.525c0,1.397 0.555,2.738 1.544,3.726c0.988,0.988 2.328,1.544 3.726,1.544l16.525,-0c1.397,-0 2.738,-0.556 3.726,-1.544c0.988,-0.988 1.544,-2.329 1.544,-3.726l-0,-16.525Z" style="fill:#a000ff;"/><path d="M95.063,38.354c-0,-1.398 -0.556,-2.738 -1.544,-3.726c-0.988,-0.989 -2.329,-1.544 -3.726,-1.544l-16.525,0c-1.398,0 -2.738,0.555 -3.726,1.544c-0.989,0.988 -1.544,2.328 -1.544,3.726l0,16.525c0,1.397 0.555,2.738 1.544,3.726c0.988,0.988 2.328,1.544 3.726,1.544l16.525,-0c1.397,-0 2.738,-0.556 3.726,-1.544c0.988,-0.988 1.544,-2.329 1.544,-3.726l-0,-16.525Z" style="fill:#a000ff;"/><path d="M61.064,38.354c-0,-1.398 -0.556,-2.738 -1.544,-3.726c-0.988,-0.989 -2.329,-1.544 -3.726,-1.544l-16.525,0c-1.398,0 -2.738,0.555 -3.726,1.544c-0.989,0.988 -1.544,2.328 -1.544,3.726l0,16.525c0,1.397 0.555,2.738 1.544,3.726c0.988,0.988 2.328,1.544 3.726,1.544l16.525,-0c1.397,-0 2.738,-0.556 3.726,-1.544c0.988,-0.988 1.544,-2.329 1.544,-3.726l-0,-16.525Z" style="fill:#a000ff;"/><path d="M129.062,104.522c-0,-1.398 -0.556,-2.738 -1.544,-3.726c-0.988,-0.989 -2.329,-1.544 -3.726,-1.544l-16.525,0c-1.398,0 -2.738,0.555 -3.726,1.544c-0.989,0.988 -1.544,2.328 -1.544,3.726l0,16.525c0,1.397 0.555,2.738 1.544,3.726c0.988,0.988 2.328,1.544 3.726,1.544l16.525,-0c1.397,-0 2.738,-0.556 3.726,-1.544c0.988,-0.988 1.544,-2.329 1.544,-3.726l-0,-16.525Z" style="fill:#ff00e5;"/><path d="M95.063,104.522c-0,-1.398 -0.556,-2.738 -1.544,-3.726c-0.988,-0.989 -2.329,-1.544 -3.726,-1.544l-16.525,0c-1.398,0 -2.738,0.555 -3.726,1.544c-0.989,0.988 -1.544,2.328 -1.544,3.726l0,16.525c0,1.397 0.555,2.738 1.544,3.726c0.988,0.988 2.328,1.544 3.726,1.544l16.525,-0c1.397,-0 2.738,-0.556 3.726,-1.544c0.988,-0.988 1.544,-2.329 1.544,-3.726l-0,-16.525Z" style="fill:#ff00e5;"/><path d="M61.064,104.522c-0,-1.398 -0.556,-2.738 -1.544,-3.726c-0.988,-0.989 -2.329,-1.544 -3.726,-1.544l-16.525,0c-1.398,0 -2.738,0.555 -3.726,1.544c-0.989,0.988 -1.544,2.328 -1.544,3.726l0,16.525c0,1.397 0.555,2.738 1.544,3.726c0.988,0.988 2.328,1.544 3.726,1.544l16.525,-0c1.397,-0 2.738,-0.556 3.726,-1.544c0.988,-0.988 1.544,-2.329 1.544,-3.726l-0,-16.525Z" style="fill:#ff00e5;"/><g><path d="M87.963,0l-82.693,0l-0.068,0l-0.068,0.002l-0.068,0.002l-0.067,0.003l-0.068,0.004l-0.067,0.004l-0.066,0.006l-0.067,0.006l-0.066,0.007l-0.066,0.008l-0.066,0.009l-0.066,0.01l-0.065,0.01l-0.065,0.011l-0.065,0.012l-0.064,0.013l-0.064,0.014l-0.064,0.014l-0.064,0.015l-0.063,0.016l-0.063,0.017l-0.063,0.017l-0.062,0.018l-0.062,0.019l-0.062,0.02l-0.061,0.02l-0.061,0.021l-0.061,0.022l-0.061,0.022l-0.06,0.024l-0.059,0.023l-0.059,0.025l-0.059,0.025l-0.059,0.027l-0.058,0.026l-0.058,0.028l-0.057,0.028l-0.057,0.029l-0.057,0.029l-0.056,0.03l-0.056,0.031l-0.055,0.031l-0.055,0.032l-0.055,0.033l-0.054,0.033l-0.054,0.034l-0.053,0.035l-0.053,0.035l-0.052,0.036l-0.052,0.036l-0.051,0.037l-0.051,0.038l-0.051,0.038l-0.05,0.039l-0.049,0.039l-0.049,0.04l-0.049,0.041l-0.048,0.041l-0.047,0.042l-0.047,0.042l-0.047,0.043l-0.046,0.043l-0.046,0.044l-0.045,0.044l-0.044,0.045l-0.044,0.046l-0.043,0.046l-0.043,0.047l-0.042,0.047l-0.042,0.047l-0.041,0.048l-0.041,0.049l-0.04,0.049l-0.039,0.049l-0.039,0.05l-0.038,0.051l-0.038,0.051l-0.037,0.051l-0.036,0.052l-0.036,0.052l-0.035,0.053l-0.035,0.053l-0.034,0.054l-0.033,0.054l-0.033,0.055l-0.032,0.055l-0.031,0.055l-0.031,0.056l-0.03,0.056l-0.029,0.057l-0.029,0.057l-0.028,0.057l-0.028,0.058l-0.026,0.058l-0.027,0.059l-0.025,0.059l-0.025,0.059l-0.023,0.059l-0.024,0.06l-0.022,0.061l-0.022,0.061l-0.021,0.061l-0.02,0.061l-0.02,0.062l-0.019,0.062l-0.018,0.062l-0.017,0.063l-0.017,0.063l-0.016,0.063l-0.015,0.064l-0.014,0.064l-0.014,0.064l-0.013,0.064l-0.012,0.065l-0.011,0.065l-0.01,0.065l-0.01,0.066l-0.009,0.066l-0.008,0.066l-0.007,0.066l-0.006,0.067l-0.006,0.066l-0.004,0.067l-0.004,0.068l-0.003,0.067l-0.002,0.068l-0.002,0.068l-0,0.068l-0,82.693c0,2.91 2.359,5.27 5.27,5.27l16.525,-0c2.91,-0 5.269,-2.36 5.269,-5.27l0,-56.336c0,-1.21 0.481,-2.371 1.337,-3.226c0.855,-0.856 2.016,-1.337 3.226,-1.337l56.336,0c2.91,0 5.27,-2.359 5.27,-5.269l-0,-16.525c-0,-2.911 -2.36,-5.27 -5.27,-5.27Z" style="fill:#4d4d4d;"/></g></g></svg>